<svg width="40" height="40" viewBox="0 0 40 40" fill="none" xmlns="http://www.w3.org/2000/svg">
<g id="Frame 608">
<rect width="40" height="40" rx="20" fill="white"/>
<g id="stack icons / top 500" clip-path="url(#clip0_136_439)">
<path id="Vector" d="M28.9578 17C28.9578 16.2266 28.1482 15.5694 27.9575 14.8564C27.7603 14.1181 28.1268 13.1455 27.7529 12.4991C27.3738 11.8438 26.3452 11.6778 25.8132 11.1458C25.2811 10.6138 25.1152 9.58484 24.4599 9.20562C23.8135 8.83161 22.8408 9.19795 22.1025 9.00055C21.4297 8.80953 20.7734 8 20 8C19.2265 8 18.5703 8.80953 17.8578 9.00031C17.1172 9.19719 16.1468 8.83109 15.499 9.20469C14.8437 9.58391 14.6778 10.6128 14.1457 11.1444C13.6142 11.6764 12.5848 11.8423 12.2056 12.4977C11.8315 13.1422 12.1981 14.1172 12.0007 14.8531C11.8095 15.5703 11 16.2266 11 17C11 17.7734 11.8095 18.4306 12.0003 19.1436C12.1975 19.8819 11.8309 20.8545 12.2047 21.5009C12.5843 22.1562 13.6128 22.3203 14.1443 22.8547C14.6764 23.3867 14.8423 24.4156 15.4981 24.7953C16.1445 25.1693 17.1167 24.8027 17.855 25.0001C18.5703 25.1891 19.2265 26 20 26C20.7734 26 21.4306 25.1905 22.144 24.9997C22.8823 24.8024 23.8545 25.1692 24.5009 24.7954C25.1562 24.4162 25.3226 23.3872 25.8547 22.8552C26.3867 22.3232 27.4156 22.1577 27.7948 21.5019C28.1689 20.8555 27.8026 19.8829 27.9998 19.1446C28.189 18.4297 28.9578 17.7734 28.9578 17ZM20 20.75C17.9281 20.75 16.25 19.0719 16.25 17C16.25 14.9248 17.9286 13.25 20 13.25C22.0714 13.25 23.75 14.9248 23.75 17C23.75 19.0719 22.0718 20.75 20 20.75Z" fill="#D86969"/>
<path id="Vector_2" opacity="0.4" d="M15.4981 24.7957C14.8428 24.416 14.6764 23.3847 14.1443 22.855C13.968 22.6786 13.7335 22.5448 13.4895 22.4176L11.0801 28.3098C10.9278 28.6936 10.9966 29.1292 11.2617 29.4465C11.5269 29.7629 11.9428 29.9105 12.3455 29.8284L14.4638 29.4049L15.4683 31.3863C15.6621 31.766 16.0437 32.0004 16.4703 32.0004C16.4864 32.0004 16.5014 31.9998 16.5175 31.9991C16.9628 31.9815 17.3449 31.714 17.5131 31.3016L19.7191 25.9344C19.0652 25.7766 18.4797 25.1656 17.8553 24.9988C17.1171 24.8004 16.1421 25.1707 15.4981 24.7957ZM28.9203 28.3066L26.5114 22.4191C26.2669 22.5465 26.0318 22.6804 25.8551 22.8571C25.3235 23.3891 25.1571 24.418 24.5014 24.7973C23.8549 25.1712 22.8828 24.8043 22.1445 25.0016C21.5206 25.1683 20.9351 25.7788 20.2817 25.9367L22.4876 31.3039C22.6561 31.7163 23.0379 31.9836 23.4832 32.0014C23.4968 31.9582 23.4734 32.0004 23.5296 32.0004C23.9559 32.0004 24.3373 31.7672 24.5304 31.3844L25.5349 29.4025L27.6532 29.8261C28.0561 29.9081 28.4721 29.7605 28.737 29.4441C29.0046 29.1269 29.0703 28.691 28.9203 28.3066Z" fill="#D86969"/>
</g>
</g>
<defs>
<clipPath id="clip0_136_439">
<rect width="24" height="24" fill="white" transform="translate(8 8)"/>
</clipPath>
</defs>
</svg>
