<svg width="152" height="24" viewBox="0 0 152 24" fill="none" xmlns="http://www.w3.org/2000/svg">
<path d="M144.621 3.69644L155.3 -0.468288V27.1H-3.30005V22.062L10.3217 20.9842L10.4201 20.9764L10.5082 20.9318L17.317 17.4835L21.4576 17.8976L21.6084 17.9126L21.7422 17.8415L24.6108 16.3154L30.3233 18.3009L30.457 18.3474L30.5953 18.3168L34.3622 17.4842L37.9252 18.3155L38.0212 18.3379L38.1185 18.3222L43.324 17.4814L47.7148 18.571L47.8038 18.5931L47.8948 18.5822L53.4513 17.9155L58.2096 20.4967L58.3688 20.5831L58.5465 20.5474L63.1918 19.6143H69.6731H69.7376L69.8 19.5979L74.6103 18.3353L86.9695 19.6117L87.0826 19.6234L87.1896 19.585L95.5574 16.585L95.6993 16.5341L95.7894 16.4133L100.858 9.61796L104.78 11.3434L104.94 11.4139L105.109 11.3691L108.698 10.4171L112.984 14.9988L113.11 15.1338L113.294 15.1542L117.016 15.5655L119.551 17.7768L119.893 18.0753L120.223 17.7635L124.208 13.9976L129.386 12.7431L129.502 12.7148L129.594 12.6366L134.201 8.68245L140.213 7.08325L140.312 7.05703L140.392 6.99431L144.621 3.69644Z" stroke="#4FA9CA"/>
</svg>
