<svg width="40" height="40" viewBox="0 0 40 40" fill="none" xmlns="http://www.w3.org/2000/svg">
<rect width="40" height="40" rx="20" fill="white"/>
<path d="M20.575 18.4834C20.6292 18.5959 20.7459 18.6667 20.8709 18.6667H20.997C21.1837 18.6667 21.33 18.5157 21.33 18.3334V15.0792C21.33 14.8292 21.1887 14.595 20.9617 14.4855L20.5125 14.2563C20.2804 14.1417 20.2652 13.8238 20.4772 13.6834L21.7213 12.728C22.05 12.4755 22.2426 12.085 22.2426 11.6705L22.2427 9.57587C21.5209 9.41929 20.7709 9.33337 20 9.33337C14.1084 9.33337 9.33337 14.1084 9.33337 20C9.33337 20.4525 9.37081 20.8955 9.4255 21.3334H14.388C14.5646 21.3334 14.7361 21.2605 14.8622 21.1355L15.6697 20.328C15.7959 20.1667 16.1042 20.2084 16.2042 20.4125L17.1475 22.298C17.2584 22.525 17.4917 22.6667 17.7459 22.6667H18.0032C18.3709 22.6667 18.6667 22.3709 18.6667 22V21.6084C18.6667 21.4313 18.5961 21.2646 18.4699 21.1396L18.2334 20.9C18.1072 20.7698 18.1072 20.5615 18.2334 20.4313L18.4705 20.1969C18.5959 20.075 18.7625 20 18.9417 20H18.9568C19.1889 20 19.406 19.875 19.5268 19.6771L20.2535 18.4688C20.3292 18.3459 20.5084 18.3542 20.575 18.4834ZM26.4667 22.7709L25.9721 22.2759C25.9116 22.2134 25.8762 22.13 25.8762 22.0415V21.5C25.8762 21.4063 25.8006 21.3334 25.7097 21.3334H25.4575C25.3818 21.3334 25.3162 21.3855 25.296 21.4532L25.1194 22.0573C25.0992 22.1302 25.0336 22.1771 24.963 22.1771H24.8015C24.736 22.1771 24.6754 22.1355 24.6502 22.073L24.4292 21.5417C24.3375 21.4167 24.2542 21.3334 24.1209 21.3334H23.6163C23.5457 21.3334 23.48 21.3542 23.4195 21.3959L22.4357 22.0992C22.3601 22.1513 22.2844 22.193 22.1986 22.2242L20.564 22.8805C20.4329 22.9325 20.3521 23.0575 20.3521 23.193V23.6146C20.3521 23.7032 20.3874 23.7917 20.448 23.8542L20.9476 24.3492C21.0687 24.4742 21.2402 24.5419 21.4167 24.5419H21.8455C21.901 24.5419 21.9565 24.5367 22.012 24.5263L22.8949 24.3023C23.2784 24.2086 23.677 24.318 23.9545 24.594L24.4995 25.1357C24.6209 25.2625 24.7917 25.3334 24.9709 25.3334H25.6017C25.7783 25.3334 25.9498 25.2605 26.0759 25.1355L26.305 24.9079C26.414 24.7682 26.5239 24.629 26.6236 24.4821C26.6473 24.4122 26.6662 24.3403 26.6662 24.2656V23.2448C26.6292 23.0667 26.5959 22.8959 26.4667 22.7709Z" fill="#4FA9CA"/>
<path opacity="0.4" d="M22.2458 9.57458L22.2457 11.6692C22.2457 12.0835 22.0531 12.4742 21.7245 12.7267L20.4803 13.6821C20.2684 13.8227 20.2835 14.1404 20.5156 14.255L20.9648 14.4842C21.1918 14.5935 21.3331 14.8279 21.3331 15.0779V18.3334C21.3331 18.5157 21.1868 18.6667 21.0001 18.6667H20.874C20.7479 18.6667 20.6318 18.5938 20.5763 18.4844C20.5107 18.3542 20.3291 18.3438 20.2534 18.4688L19.5267 19.6771C19.4042 19.875 19.1875 20 18.9542 20H18.9417C18.7625 20 18.5958 20.075 18.4708 20.2L18.2333 20.4334C18.1072 20.5636 18.1072 20.7719 18.2333 20.9021L18.4704 21.1417C18.5966 21.2667 18.6672 21.4334 18.6672 21.6105V22C18.6672 22.3698 18.3695 22.6667 18.0014 22.6667H17.7458C17.4935 22.6667 17.2617 22.5261 17.1504 22.2969L16.2042 20.4125C16.1042 20.2084 15.7958 20.1667 15.6708 20.3292L14.8625 21.1375C14.7375 21.2625 14.5667 21.3334 14.3875 21.3334H9.42542C10.0829 26.5917 14.5625 30.6667 20 30.6667C25.8916 30.6667 30.6666 25.8917 30.6666 20C30.6666 14.8792 27.0583 10.6063 22.2458 9.57458ZM26.6291 24.2667C26.6291 24.3414 26.6103 24.4134 26.5866 24.4832C26.4868 24.63 26.377 24.7693 26.268 24.909L26.0389 25.1365C25.95 25.2625 25.7791 25.3334 25.6 25.3334H24.9708C24.7942 25.3334 24.6227 25.2605 24.5016 25.1355L23.9566 24.5938C23.6791 24.3178 23.2804 24.2084 22.8971 24.3021L22.0141 24.5261C21.9586 24.5365 21.9031 24.5417 21.8476 24.5417H21.4189C21.2423 24.5417 21.0708 24.474 20.9497 24.349L20.45 23.8542C20.3894 23.7917 20.3541 23.7032 20.3541 23.6146V23.193C20.3541 23.0575 20.4349 22.9325 20.566 22.8805L22.2006 22.2242C22.2864 22.193 22.3621 22.1513 22.4377 22.0992L23.4215 21.3959C23.4833 21.3542 23.5458 21.3334 23.6166 21.3334H24.1212C24.2524 21.3334 24.3735 21.4167 24.429 21.5417L24.651 22.073C24.6762 22.1355 24.7368 22.1771 24.8024 22.1771H24.9639C25.0345 22.1771 25.1001 22.1303 25.1203 22.0573L25.2969 21.4532C25.3166 21.3875 25.3833 21.3334 25.4583 21.3334H25.7106C25.8014 21.3334 25.8771 21.4063 25.8771 21.5V22.0417C25.8771 22.1303 25.9124 22.2136 25.973 22.2761L26.4676 22.7711C26.5937 22.8961 26.6644 23.068 26.6644 23.2453V24.2667H26.6291Z" fill="#4FA9CA"/>
</svg>
