<svg width="40" height="40" viewBox="0 0 40 40" fill="none" xmlns="http://www.w3.org/2000/svg">
<rect width="40" height="40" rx="20" fill="white"/>
<path d="M31.9625 20C31.9625 21.02 31.0379 21.2958 30.6288 21.2958C30.3175 21.2958 30.0042 21.1877 29.7508 20.9663L20 12.4391L10.2117 21.0041C9.95792 21.225 9.645 21.2958 9.33333 21.2958C8.93225 21.2957 8 20.9783 8 20C8 19.6925 8.11129 19.2975 8.455 18.9962L19.0842 9.70038C19.3355 9.48034 19.6488 9.37042 19.9625 9.37042C20.2763 9.37042 20.5896 9.48034 20.8408 9.70038L25.295 13.5983V11.3325C25.295 10.9646 25.5932 10.7033 25.9242 10.7033L28.5533 10.7036C28.9218 10.7036 29.1825 11.0024 29.1825 11.3328L29.1824 17.0619L31.394 18.9974C31.8875 19.3 31.9625 19.6916 31.9625 20Z" fill="#6D80B2"/>
<path opacity="0.4" d="M20.0001 12.4395L10.6676 20.6045L10.6671 28.0003C10.6671 29.4732 11.8609 30.6295 13.2963 30.6295H26.5921C28.065 30.6295 29.2213 29.4357 29.2213 28.0003L29.2212 20.6045L20.0001 12.4395Z" fill="#6D80B2"/>
</svg>
